<?xml version="1.0" encoding="UTF-8" standalone="no"?>
<!DOCTYPE svg PUBLIC "-//W3C//DTD SVG 1.1//EN" "http://www.w3.org/Graphics/SVG/1.1/DTD/svg11.dtd">
<svg width="100%" height="100%" viewBox="0 0 265 265" version="1.1" xmlns="http://www.w3.org/2000/svg" xmlns:xlink="http://www.w3.org/1999/xlink" xml:space="preserve" xmlns:serif="http://www.serif.com/" style="fill-rule:evenodd;clip-rule:evenodd;">
    <g id="g4002" transform="matrix(0.279895,0,0,0.279895,-21.5849,96.0491)">
        <g id="layer1">
            <g id="g40021" serif:id="g4002">
                <g id="back-silkscreen" serif:id="back silkscreen">
                    <g id="path6846-9" transform="matrix(0.214464,-0.355721,0.355717,0.214467,-125.333,-157.05)">
                        <path d="M-75.414,913.596C-78.943,917.124 -118.55,899.402 -123.479,900.183C-128.408,900.963 -160.6,930.057 -165.046,927.792C-169.492,925.527 -164.877,882.381 -167.142,877.935C-169.408,873.489 -207.026,851.863 -206.245,846.934C-205.465,842.005 -163.005,833.062 -159.476,829.534C-155.948,826.005 -147.005,783.545 -142.076,782.765C-137.147,781.984 -115.521,819.602 -111.075,821.868C-106.629,824.133 -63.484,819.518 -61.218,823.964C-58.953,828.41 -88.047,860.602 -88.828,865.531C-89.608,870.46 -71.886,910.067 -75.414,913.596Z" style="fill:white;fill-rule:nonzero;stroke:white;stroke-width:1px;"/>
                    </g>
                    <g id="path6846-5-3" transform="matrix(0.214464,-0.355721,0.355717,0.214467,668.946,-157.05)">
                        <path d="M-75.414,913.596C-78.943,917.124 -118.55,899.402 -123.479,900.183C-128.408,900.963 -160.6,930.057 -165.046,927.792C-169.492,925.527 -164.877,882.381 -167.142,877.935C-169.408,873.489 -207.026,851.863 -206.245,846.934C-205.465,842.005 -163.005,833.062 -159.476,829.534C-155.948,826.005 -147.005,783.545 -142.076,782.765C-137.147,781.984 -115.521,819.602 -111.075,821.868C-106.629,824.133 -63.484,819.518 -61.218,823.964C-58.953,828.41 -88.047,860.602 -88.828,865.531C-89.608,870.46 -71.886,910.067 -75.414,913.596Z" style="fill:white;fill-rule:nonzero;stroke:white;stroke-width:1px;"/>
                    </g>
                    <g id="text1459-2">
                        <path id="path5045" d="M227.964,-1.308L235.349,-14.856C236.081,-16.198 235.703,-17.482 234.361,-18.213L204.517,-34.481C203.175,-35.213 202.797,-36.497 203.528,-37.839L216.243,-61.164C216.975,-62.506 218.258,-62.884 219.601,-62.153L249.445,-45.884C250.787,-45.153 252.07,-45.531 252.802,-46.873L260.187,-60.421C260.918,-61.763 260.541,-63.047 259.198,-63.778L180.786,-106.521C179.444,-107.253 178.16,-106.875 177.429,-105.533L170.044,-91.985C169.312,-90.643 169.69,-89.359 171.032,-88.628L198.959,-73.404C200.301,-72.673 200.679,-71.389 199.947,-70.047L187.232,-46.722C186.501,-45.38 185.217,-45.002 183.875,-45.733L155.948,-60.956C154.606,-61.688 153.323,-61.31 152.591,-59.968L145.206,-46.42C144.474,-45.078 144.852,-43.794 146.194,-43.063L224.607,-0.32C225.949,0.412 227.233,0.034 227.964,-1.308Z" style="fill:white;fill-rule:nonzero;"/>
                        <path id="path5047" d="M268.524,-122.168C267.616,-121.225 266.944,-121.366 266.414,-122.18L249.625,-150.074L247.728,-152.406L249.495,-154.241L251.897,-152.433L280.35,-136.648C281.183,-136.149 281.299,-135.431 280.39,-134.487L268.524,-122.168ZM297.595,-125.596C298.352,-126.382 298.71,-126.543 299.385,-126.196L311.037,-119.722C311.713,-119.375 312.328,-119.489 312.884,-120.066L325.406,-133.066C326.163,-133.852 326.255,-134.472 325.73,-134.977C325.573,-135.128 325.468,-135.229 325.053,-135.427L241.1,-179.203C240.164,-179.7 239.141,-179.372 238.384,-178.586L223.084,-162.702C222.327,-161.916 222.038,-160.881 222.57,-159.965C222.57,-159.965 268.985,-78.372 269.092,-78.168C269.253,-77.811 269.624,-77.251 269.886,-76.999C270.41,-76.494 271.076,-76.661 271.833,-77.447L284.305,-90.395C284.81,-90.919 284.901,-91.539 284.529,-92.201L277.623,-103.602C277.25,-104.264 277.348,-104.575 278.155,-105.414L297.595,-125.596Z" style="fill:white;fill-rule:nonzero;"/>
                        <path id="path5049" d="M364.986,-157.257L373.855,-162.704C386.383,-170.398 392.135,-181.617 388.779,-193.478C388.352,-195.009 387.856,-195.816 387.628,-196.188C387.285,-196.746 386.67,-197.052 385.774,-196.843L371.972,-194.004C371.585,-193.937 371.237,-193.809 370.927,-193.619C370.183,-193.162 369.619,-192.132 369.881,-191.011C371.134,-185.632 369.414,-181.757 364.204,-178.557L355.273,-173.072C350.374,-170.063 345.039,-171.656 342.03,-176.556L321.348,-210.234C318.53,-214.823 319.269,-220.573 324.231,-223.62L333.162,-229.105C338.372,-232.304 342.868,-232.076 346.837,-228.535C347.718,-227.795 348.891,-227.832 349.635,-228.289C349.946,-228.479 350.218,-228.732 350.452,-229.046L359.226,-240.072C359.818,-240.777 359.823,-241.464 359.48,-242.022C359.252,-242.394 359.137,-242.58 357.965,-243.654C348.904,-252.011 335.916,-252.576 323.449,-244.921L314.518,-239.436C297.648,-229.076 294.574,-214.888 302.839,-201.429L325.807,-164.03C334.415,-150.013 347.496,-146.516 364.986,-157.257Z" style="fill:white;fill-rule:nonzero;"/>
                        <path id="path5051" d="M418.879,-187.801L433.648,-192.268C435.111,-192.71 435.743,-193.89 435.3,-195.353L427.272,-221.896L430.912,-230.981C431.085,-231.414 431.467,-231.909 431.816,-232.015C432.373,-232.183 433.008,-231.843 433.323,-231.558L465.74,-203.571C466.662,-202.785 467.715,-202.571 468.69,-202.866L485.968,-208.092C487.431,-208.534 488.063,-209.714 487.599,-211.247C487.43,-211.804 487.165,-212.18 486.76,-212.514L439.994,-250.229C439.589,-250.562 439.408,-250.659 439.344,-250.868C439.281,-251.077 439.309,-251.238 439.531,-251.761L456.629,-293.28C456.872,-293.733 456.87,-294.493 456.68,-295.12C456.238,-296.583 455.058,-297.215 453.595,-296.772L437.572,-291.926C436.806,-291.694 436.263,-291.226 435.965,-290.452L418.677,-246.291C418.637,-248.94 417.938,-252.758 416.863,-256.311L409.446,-280.834C409.004,-282.297 407.824,-282.929 406.361,-282.486L391.592,-278.019C390.129,-277.577 389.497,-276.397 389.94,-274.934L415.793,-189.453C416.236,-187.99 417.416,-187.358 418.879,-187.801L418.879,-187.801Z" style="fill:white;fill-rule:nonzero;"/>
                        <path id="path5053" d="M556.55,-236.245L556.566,-250.802L570.323,-250.786C571.851,-250.784 572.798,-251.729 572.8,-253.258L572.812,-263.957C572.814,-265.485 571.869,-266.433 570.34,-266.434L556.584,-266.45L556.599,-279.624C556.601,-281.152 555.656,-282.1 554.128,-282.101L543.428,-282.114C541.9,-282.116 540.953,-281.17 540.951,-279.642L540.936,-266.468L526.961,-266.484C525.433,-266.486 524.486,-265.541 524.484,-264.012L524.472,-253.313C524.47,-251.785 525.415,-250.837 526.944,-250.835L540.918,-250.819L540.901,-236.263C540.899,-234.734 541.845,-233.787 543.373,-233.785L554.072,-233.773C555.601,-233.771 556.548,-234.716 556.55,-236.245L556.55,-236.245Z" style="fill:white;fill-rule:nonzero;"/>
                        <path id="path5055" d="M618.356,-206.705L632.925,-201.847C634.375,-201.364 635.571,-201.962 636.055,-203.412L643.952,-227.095C648.304,-240.145 651.229,-255.358 651.482,-256.117L651.827,-256.002C651.919,-255.588 651.458,-244.08 651.802,-238.441L653.732,-209.026C653.778,-208.013 654.468,-207.323 655.711,-206.908L666.621,-203.27C667.587,-202.948 668.554,-203.086 669.175,-203.799L688.696,-225.755C692.356,-230.058 698.663,-239.31 698.779,-239.655L699.331,-239.471C699.078,-238.711 692.447,-224.81 688.234,-212.175L680.382,-188.63C679.899,-187.18 680.497,-185.984 681.947,-185.5L696.24,-180.734C697.69,-180.25 698.887,-180.849 699.37,-182.299L727.621,-267.018C728.105,-268.468 727.506,-269.665 726.056,-270.148L710.452,-275.352C709.416,-275.697 708.427,-275.49 707.897,-274.823L674.151,-236.666C672.47,-234.618 670.721,-231.902 670.675,-231.764L669.984,-231.994C670.03,-232.132 670.33,-235.101 670.146,-238.001L665.572,-288.937C665.48,-289.811 664.882,-290.548 663.846,-290.893L648.173,-296.12C646.723,-296.604 645.526,-296.005 645.042,-294.555L616.791,-209.836C616.308,-208.386 616.906,-207.189 618.356,-206.705Z" style="fill:white;fill-rule:nonzero;"/>
                        <path id="path5057" d="M755.455,-183.259C754.375,-184 754.404,-184.686 755.119,-185.343L779.865,-206.499L781.853,-208.754L783.953,-207.314L782.566,-204.647L771.686,-173.982C771.331,-173.078 770.642,-172.845 769.561,-173.586L755.455,-183.259ZM763.627,-155.151C764.527,-154.534 764.745,-154.208 764.513,-153.484L760.049,-140.925C759.817,-140.201 760.031,-139.613 760.692,-139.16L775.578,-128.951C776.478,-128.334 777.104,-128.346 777.516,-128.946C777.64,-129.127 777.722,-129.247 777.849,-129.689L807.191,-219.708C807.527,-220.713 807.035,-221.668 806.135,-222.286L787.947,-234.758C787.047,-235.375 785.978,-235.49 785.162,-234.815C785.162,-234.815 712.334,-175.588 712.15,-175.449C711.824,-175.231 711.334,-174.773 711.128,-174.473C710.716,-173.873 710.991,-173.243 711.891,-172.626L726.717,-162.459C727.318,-162.047 727.944,-162.059 728.535,-162.536L738.642,-171.225C739.234,-171.702 739.556,-171.658 740.517,-170.999L763.627,-155.151Z" style="fill:white;fill-rule:nonzero;"/>
                        <path id="path5059" d="M787.914,-116.626L798.068,-105.008C799.074,-103.857 800.409,-103.767 801.56,-104.773L822.44,-123.021L832.218,-123.446C832.683,-123.466 833.293,-123.322 833.532,-123.048C833.915,-122.61 833.867,-121.891 833.737,-121.487L821.586,-80.42C821.249,-79.256 821.488,-78.208 822.159,-77.441L834.037,-63.849C835.043,-62.699 836.378,-62.609 837.583,-63.662C838.022,-64.046 838.255,-64.443 838.392,-64.949L853.498,-123.098C853.635,-123.604 853.649,-123.81 853.813,-123.953C853.978,-124.097 854.135,-124.138 854.704,-124.151L899.579,-125.671C900.093,-125.637 900.784,-125.951 901.278,-126.382C902.429,-127.388 902.518,-128.723 901.513,-129.874L890.497,-142.479C889.97,-143.082 889.32,-143.383 888.491,-143.336L841.13,-140.9C843.527,-142.029 846.719,-144.238 849.514,-146.681L868.805,-163.54C869.956,-164.545 870.046,-165.881 869.04,-167.031L858.886,-178.65C857.881,-179.801 856.545,-179.891 855.395,-178.885L788.149,-120.118C786.998,-119.112 786.908,-117.777 787.914,-116.626Z" style="fill:white;fill-rule:nonzero;"/>
                        <path id="path5061" d="M869.04,2.727C869.739,4.086 871.013,4.495 872.373,3.796L884.478,-2.426C885.837,-3.125 886.246,-4.399 885.547,-5.758L868.843,-38.254C868.144,-39.613 868.553,-40.887 869.913,-41.586L882.665,-48.141C884.024,-48.84 885.299,-48.431 885.997,-47.072L899.706,-20.402C900.405,-19.043 901.679,-18.634 903.039,-19.333L915.144,-25.555C916.503,-26.254 916.912,-27.528 916.213,-28.887L902.504,-55.557C901.805,-56.916 902.214,-58.19 903.574,-58.889L915.679,-65.111C917.038,-65.81 918.312,-65.401 919.011,-64.042L935.715,-31.546C936.413,-30.187 937.687,-29.778 939.047,-30.477L951.152,-36.699C952.511,-37.398 952.92,-38.672 952.221,-40.031L926.201,-90.652C925.502,-92.011 924.228,-92.42 922.868,-91.721L844.089,-51.226C842.73,-50.527 842.321,-49.253 843.02,-47.894L869.04,2.727Z" style="fill:white;fill-rule:nonzero;"/>
                    </g>
                    <g id="text1459-5-5-7">
                        <path id="path5064" d="M888.248,187.067C885.17,207.655 894.458,221.333 911.734,223.916C924.332,225.799 935.29,218.459 944.631,200.28C950.427,189.077 954.01,185.786 958.617,186.475C963.368,187.185 966.591,191.714 965.547,198.697C964.611,204.959 961.032,209.208 956.031,210.668C954.876,211.01 954.171,211.788 954.041,212.652C953.988,213.012 954.006,213.382 954.096,213.764L956.888,227.575C957.047,228.482 957.569,228.928 958.217,229.025C958.649,229.089 958.865,229.122 960.441,228.916C972.799,226.495 981.388,216.298 983.669,201.038C986.575,181.602 975.9,167.349 962.871,165.401C948.691,163.281 937.868,170.2 928.729,188.998C923.106,200.521 918.796,203.262 914.189,202.573C909.078,201.809 905.916,197.362 907.025,189.948C908.23,181.886 912.014,177.741 917.325,176.18C918.48,175.838 919.185,175.06 919.314,174.196C919.368,173.837 919.35,173.466 919.26,173.084L916.071,158.478C915.912,157.571 915.39,157.125 914.743,157.028C914.311,156.964 914.095,156.931 912.518,157.137C899.876,159.001 890.734,170.439 888.248,187.067Z" style="fill:white;fill-rule:nonzero;"/>
                        <path id="path5066" d="M874.496,249.398C873.959,250.829 874.512,252.047 875.943,252.584L903.268,262.841C904.699,263.378 905.252,264.596 904.715,266.027L899.804,279.111C892.77,297.85 902.307,312.002 916.071,317.169L918.184,317.962C934.606,324.126 948.374,318.721 955.382,300.05L967.48,267.819C968.017,266.388 967.464,265.17 966.033,264.633L883.105,233.505C881.674,232.968 880.455,233.521 879.918,234.952L874.496,249.398ZM922.023,272.524C922.56,271.093 923.778,270.54 925.209,271.077L941.495,277.19C942.926,277.727 943.479,278.945 942.942,280.376L937.878,293.868C935.857,299.252 930.549,302.001 924.757,299.827L922.781,299.086C916.989,296.912 914.938,291.399 916.958,286.016L922.023,272.524Z" style="fill:white;fill-rule:nonzero;"/>
                        <path id="path5068" d="M869.346,336.964C870.066,335.87 870.753,335.886 871.423,336.588L893.055,360.919L895.348,362.862L893.948,364.991L891.255,363.655L860.385,353.372C859.475,353.034 859.228,352.35 859.948,351.255L869.346,336.964ZM841.402,345.679C840.802,346.591 840.48,346.815 839.752,346.597L827.109,342.377C826.381,342.159 825.797,342.385 825.357,343.054L815.439,358.135C814.839,359.048 814.863,359.673 815.471,360.073C815.653,360.193 815.775,360.273 816.22,360.391L906.79,387.984C907.801,388.301 908.747,387.79 909.347,386.878L921.465,368.452C922.065,367.54 922.159,366.469 921.468,365.666C921.468,365.666 860.841,293.999 860.698,293.818C860.474,293.497 860.007,293.015 859.703,292.815C859.095,292.415 858.471,292.702 857.871,293.614L847.993,308.635C847.593,309.243 847.617,309.868 848.105,310.451L856.989,320.388C857.477,320.97 857.439,321.293 856.799,322.266L841.402,345.679Z" style="fill:white;fill-rule:nonzero;"/>
                        <path id="path5070" d="M785.271,385.23L777.68,392.35C766.956,402.409 763.581,414.556 769.256,425.499C769.983,426.913 770.63,427.603 770.929,427.922C771.377,428.399 772.041,428.575 772.877,428.19L785.825,422.631C786.19,422.488 786.505,422.292 786.771,422.043C787.408,421.446 787.753,420.324 787.271,419.279C784.96,414.262 785.865,410.12 790.324,405.937L797.968,398.767C802.162,394.833 807.708,395.319 811.641,399.513L838.679,428.338C842.364,432.267 842.797,438.047 838.55,442.031L830.906,449.201C826.447,453.384 821.997,454.066 817.396,451.395C816.384,450.848 815.243,451.12 814.606,451.718C814.34,451.967 814.124,452.269 813.959,452.624L807.584,465.19C807.146,466 807.279,466.674 807.727,467.151C808.026,467.47 808.175,467.629 809.539,468.445C820.097,474.808 832.933,472.747 843.604,462.738L851.248,455.568C865.687,442.024 865.842,427.508 855.037,415.988L825.011,383.978C813.758,371.981 800.241,371.188 785.271,385.23Z" style="fill:white;fill-rule:nonzero;"/>
                        <path id="path5072" d="M694.064,450.898C692.74,451.662 692.394,452.954 693.158,454.278L699.96,466.067C700.724,467.391 702.017,467.737 703.34,466.973L734.987,448.712C736.311,447.948 737.603,448.295 738.367,449.618L745.533,462.037C746.297,463.361 745.951,464.654 744.627,465.418L718.654,480.405C717.33,481.169 716.984,482.462 717.748,483.785L724.55,495.574C725.314,496.898 726.607,497.244 727.93,496.481L753.903,481.493C755.227,480.729 756.519,481.076 757.283,482.4L764.086,494.188C764.85,495.512 764.503,496.804 763.179,497.568L731.533,515.83C730.209,516.594 729.862,517.886 730.626,519.21L737.429,530.999C738.193,532.323 739.485,532.669 740.809,531.905L790.107,503.458C791.431,502.694 791.778,501.402 791.014,500.078L746.742,423.357C745.978,422.033 744.686,421.687 743.362,422.451L694.064,450.898Z" style="fill:white;fill-rule:nonzero;"/>
                    </g>
                    <g id="text1459-5-4" transform="matrix(1,0,0,1,3.7e-05,0)">
                        <path id="path5075" d="M185.869,197.96L205.219,183.615C205.931,183.047 206.164,182.267 205.949,181.048L202.693,162.554C202.566,161.838 201.892,161.365 201.319,161.466C200.889,161.542 200.543,161.677 200.353,161.858L163.154,192.352C162.833,192.63 162.5,192.837 161.999,192.925C161.64,192.988 161.197,192.992 160.645,192.794L111.705,175.914C111.309,175.763 110.854,175.695 110.495,175.758C109.707,175.897 109.437,176.462 109.639,177.609L112.895,196.102C113.173,197.679 113.957,198.354 115.048,198.679L128.884,202.968C136.865,205.48 144.163,206.634 148.249,205.914L148.324,206.344C146.182,207.609 141.248,211.064 139.464,212.265L119.92,226.348C118.992,226.955 118.473,227.785 118.751,229.362L122.058,248.143C122.235,249.146 122.732,249.872 123.52,249.733C123.879,249.67 124.081,249.56 124.461,249.198L162.052,218.412C162.432,218.05 162.739,217.7 163.241,217.612C163.743,217.524 164.139,217.675 164.536,217.827L212.995,234.496C213.223,234.53 213.665,234.526 214.024,234.463C214.597,234.362 215.226,233.734 215.087,232.945L211.666,213.52C211.49,212.516 211.052,211.706 210.116,211.428L196.423,207.113C186.119,204.42 181.79,203.334 176.19,204.69L176.114,204.26C178.257,202.996 184.085,199.161 185.869,197.96L185.869,197.96Z" style="fill:white;fill-rule:nonzero;"/>
                        <path id="path5077" d="M131.941,280.641L138.012,294.827C138.614,296.232 139.856,296.729 141.261,296.128L172.51,282.754C173.915,282.153 175.157,282.65 175.758,284.056L186.211,308.479C186.812,309.884 186.315,311.126 184.91,311.728L153.661,325.101C152.256,325.703 151.758,326.945 152.36,328.35L158.431,342.536C159.032,343.941 160.274,344.438 161.68,343.837L243.782,308.699C245.187,308.097 245.685,306.855 245.083,305.45L239.012,291.265C238.411,289.859 237.169,289.362 235.764,289.963L206.523,302.478C205.117,303.079 203.875,302.582 203.274,301.176L192.821,276.753C192.22,275.348 192.717,274.106 194.123,273.504L223.364,260.99C224.769,260.388 225.266,259.146 224.665,257.741L218.594,243.556C217.992,242.15 216.75,241.653 215.345,242.254L133.243,277.392C131.838,277.994 131.34,279.236 131.941,280.641Z" style="fill:white;fill-rule:nonzero;"/>
                        <path id="path5079" d="M218.753,375.094C217.972,374.042 218.223,373.403 219.113,373.015L249.395,361.061L252.009,359.575L253.527,361.621L251.347,363.692L231.082,389.148C230.452,389.887 229.724,389.883 228.944,388.831L218.753,375.094ZM217.334,404.332C217.984,405.209 218.084,405.588 217.63,406.197L209.321,416.62C208.867,417.229 208.878,417.855 209.355,418.498L220.11,432.994C220.761,433.871 221.356,434.064 221.941,433.63C222.116,433.5 222.233,433.413 222.497,433.036L279.532,357.463C280.177,356.622 280.023,355.558 279.372,354.681L266.232,336.97C265.582,336.093 264.609,335.637 263.617,336.01C263.617,336.01 175.481,368.318 175.262,368.39C174.883,368.49 174.27,368.763 173.978,368.98C173.394,369.414 173.448,370.098 174.099,370.975L184.81,385.413C185.244,385.997 185.84,386.19 186.554,385.932L198.939,381.003C199.653,380.745 199.944,380.892 200.638,381.827L217.334,404.332Z" style="fill:white;fill-rule:nonzero;"/>
                        <path id="path5081" d="M243.536,455.274L254.758,465.864C255.869,466.913 257.207,466.874 258.256,465.763L319.551,400.814C320.6,399.702 320.561,398.364 319.45,397.315L308.228,386.725C307.116,385.676 305.779,385.715 304.73,386.826L243.435,451.775C242.386,452.887 242.424,454.224 243.536,455.274Z" style="fill:white;fill-rule:nonzero;"/>
                        <path id="path5083" d="M286.255,493.437L299.225,501.795C300.51,502.623 301.818,502.34 302.646,501.055L318.771,476.033C323.936,468.018 328.56,458.962 329.829,454.844L330.318,455.159C330.16,455.404 329.645,458.622 329.418,462.199L327.877,518.873C327.893,519.923 328.286,520.523 329.081,521.035L340.95,528.684C342.235,529.512 343.543,529.229 344.371,527.944L392.747,452.876C393.575,451.591 393.292,450.283 392.008,449.456L379.037,441.097C377.753,440.269 376.445,440.552 375.617,441.837L359.413,466.982C354.957,473.895 349.65,484.415 347.211,491.156L346.721,490.841C346.989,489.888 347.545,485.397 347.654,482.004L350.526,423.936C350.514,423.149 350.099,422.448 349.304,421.936L337.313,414.208C336.028,413.38 334.72,413.663 333.892,414.948L285.516,490.016C284.688,491.301 284.97,492.609 286.255,493.437Z" style="fill:white;fill-rule:nonzero;"/>
                    </g>
                </g>
            </g>
        </g>
    </g>
</svg>
