<?xml version="1.0" encoding="UTF-8" standalone="no"?>
<!DOCTYPE svg PUBLIC "-//W3C//DTD SVG 1.1//EN" "http://www.w3.org/Graphics/SVG/1.1/DTD/svg11.dtd">
<svg width="100%" height="100%" viewBox="0 0 265 265" version="1.1" xmlns="http://www.w3.org/2000/svg" xmlns:xlink="http://www.w3.org/1999/xlink" xml:space="preserve" xmlns:serif="http://www.serif.com/" style="fill-rule:evenodd;clip-rule:evenodd;stroke-linejoin:round;stroke-miterlimit:2;">
    <g id="g4002" transform="matrix(0.279895,0,0,0.279895,-21.5849,96.0491)">
        <g id="layer1">
            <g id="g40021" serif:id="g4002">
                <g id="back-copper" serif:id="back copper">
                    <path id="round-frame" serif:id="round frame" d="M549.032,-343.161C564.998,-343.165 581.115,-342.343 597.343,-340.7C857.009,-314.397 1046.21,-82.581 1019.91,177.089C993.61,436.759 761.765,625.936 502.098,599.633C242.432,573.33 53.257,341.514 79.56,81.844C104.218,-161.598 309.506,-343.098 549.032,-343.161ZM549.035,-333.169C314.576,-333.107 113.637,-155.441 89.501,82.851C63.755,337.031 248.929,563.945 503.105,589.692C757.282,615.438 984.225,430.262 1009.97,176.082C1035.72,-78.098 850.512,-305.012 596.336,-330.759C580.447,-332.368 564.667,-333.173 549.035,-333.169ZM644.575,449.856L644.211,535.582L644.203,537.621L623.24,558.851L566.26,558.818L549.8,542.111L533.002,559.04L476.735,558.903L455.499,537.885L454.977,453.219C301.187,413.856 222.608,273.189 222.608,129.467C222.608,-39.902 369.062,-197.65 549.721,-197.65C730.379,-197.65 876.834,-30.632 876.834,129.467C876.834,262.346 794.325,405.158 644.575,449.856ZM638.222,441.302C785.664,399.148 866.842,259.366 866.842,129.467C866.842,-25.741 724.86,-187.658 549.721,-187.658C374.58,-187.658 232.6,-34.729 232.6,129.467C232.6,269.912 309.644,407.617 461.129,444.456L464.92,445.378L465.466,533.691L480.854,548.921L528.85,549.037L549.826,527.9L570.445,548.829L619.066,548.856L634.228,533.501L634.616,442.334L638.222,441.302Z" style="fill:rgb(255,196,0);"/>
                    <g id="toolz" transform="matrix(1,0,0,1,48.3531,-424.264)">
                        <path d="M515.489,954.042L525.481,964.034L565.449,964.034L575.441,954.042L575.441,824.144L565.449,814.152L555.457,814.152L555.457,674.263L545.465,664.27L535.473,674.263L535.473,814.152L525.481,814.152L515.489,824.144L515.489,954.042ZM430.557,664.27L405.577,664.27L395.585,674.263L395.585,744.207L405.577,754.2L425.561,764.192L425.561,954.042L435.553,964.034L475.521,964.034L485.513,954.042L485.513,764.192L505.497,754.2L515.489,744.207L515.489,674.263L505.497,664.27L480.517,664.27L480.517,719.227L455.537,729.219L430.557,719.227L430.557,664.27ZM455.537,919.07C466.574,919.07 470.525,923.021 470.525,934.058C470.525,945.095 466.574,949.046 455.537,949.046C444.5,949.046 440.549,945.095 440.549,934.058C440.549,923.021 444.5,919.07 455.537,919.07Z" style="fill:rgb(255,196,0);fill-rule:nonzero;"/>
                    </g>
                </g>
            </g>
        </g>
    </g>
</svg>
