<?xml version="1.0" encoding="UTF-8" standalone="no"?>
<!DOCTYPE svg PUBLIC "-//W3C//DTD SVG 1.1//EN" "http://www.w3.org/Graphics/SVG/1.1/DTD/svg11.dtd">
<svg width="100%" height="100%" viewBox="0 0 265 265" version="1.1" xmlns="http://www.w3.org/2000/svg" xmlns:xlink="http://www.w3.org/1999/xlink" xml:space="preserve" xmlns:serif="http://www.serif.com/" style="fill-rule:evenodd;clip-rule:evenodd;stroke-linejoin:round;stroke-miterlimit:2;">
    <g transform="matrix(1,0,0,1,1.88738e-15,-4.25258e-05)">
        <g id="back-solder-mask" serif:id="back solder mask" transform="matrix(1.0827,0,0,1.0827,-13.5333,-13.5338)">
            <path d="M134.497,12.5C138.624,12.499 142.79,12.711 146.986,13.136C214.113,19.936 263.026,79.864 256.226,146.992C249.427,214.121 189.491,263.026 122.363,256.226C55.236,249.427 6.331,189.499 13.131,122.37C19.505,59.437 72.575,12.516 134.497,12.5ZM134.497,15.083C73.886,15.099 21.94,61.028 15.701,122.63C9.045,188.34 56.915,247.001 122.624,253.657C188.332,260.312 247,212.442 253.656,146.732C260.312,81.023 212.434,22.362 146.725,15.706C142.618,15.29 138.538,15.082 134.497,15.083ZM159.196,217.507L159.102,239.668L159.1,240.195L153.68,245.684L138.95,245.675L134.695,241.356L130.352,245.732L115.807,245.697L110.317,240.264L110.182,218.376C70.425,208.2 50.111,171.836 50.111,134.681C50.111,90.897 87.972,50.117 134.675,50.117C181.377,50.117 219.238,93.293 219.238,134.681C219.238,169.033 197.908,205.952 159.196,217.507ZM158.586,134.843L158.586,121.928C158.586,120.832 158.151,119.78 157.376,119.005L152.21,113.839C151.435,113.064 150.383,112.629 149.287,112.629C148.191,112.629 147.14,113.064 146.365,113.839L141.199,119.005C140.423,119.78 139.988,120.832 139.988,121.928L139.988,155.508C139.988,157.789 141.84,159.641 144.121,159.641C146.402,159.641 148.254,157.789 148.254,155.508L148.254,123.64L149.287,122.606L150.32,123.64L150.32,134.843C150.32,137.124 152.172,138.976 154.453,138.976C156.734,138.976 158.586,137.124 158.586,134.843ZM144.46,106.768L148.416,102.813L182.867,102.813C185.148,102.813 187,100.961 187,98.68C187,96.399 185.148,94.547 182.867,94.547L146.704,94.547C145.608,94.547 144.557,94.982 143.782,95.757L138.615,100.923C137.002,102.536 137.003,105.155 138.615,106.768C140.228,108.381 142.847,108.381 144.46,106.768ZM159.959,155.169L158.586,153.796L158.586,149.309L167.369,149.309C169.65,149.309 171.502,147.457 171.502,145.176C171.502,142.895 169.65,141.043 167.369,141.043L154.453,141.043C152.171,141.043 150.32,142.893 150.32,145.176L150.32,155.508C150.32,156.604 150.756,157.656 151.531,158.431L154.114,161.014C155.727,162.627 158.346,162.627 159.959,161.014C161.572,159.401 161.572,156.782 159.959,155.169ZM88.473,87.314L116.887,87.314C119.168,87.314 121.02,85.462 121.02,83.181C121.02,80.9 119.168,79.048 116.887,79.048L88.473,79.048C86.192,79.048 84.34,80.9 84.34,83.181C84.34,85.462 86.192,87.314 88.473,87.314ZM171.505,165.841L171.505,162.386L180.627,153.264C181.402,152.489 181.837,151.438 181.837,150.342L181.837,145.176C181.837,142.895 179.985,141.043 177.704,141.043C175.423,141.043 173.571,142.895 173.571,145.176L173.571,148.63L164.45,157.752C163.674,158.527 163.239,159.578 163.239,160.674L163.239,165.841C163.239,168.122 165.091,169.974 167.372,169.974C169.653,169.974 171.505,168.122 171.505,165.841ZM151.643,92.48L186.094,92.48L188.839,95.225L188.839,102.134L186.094,104.879L157.036,104.879C154.755,104.879 152.903,106.731 152.903,109.012C152.903,111.293 154.755,113.145 157.036,113.145L187.806,113.145C188.902,113.145 189.953,112.71 190.728,111.935L195.894,106.768C196.67,105.993 197.105,104.942 197.105,103.846L197.105,93.513C197.105,92.417 196.67,91.366 195.894,90.591L190.728,85.425C189.953,84.65 188.902,84.214 187.806,84.214L151.643,84.214C149.362,84.214 147.51,86.066 147.51,88.347C147.51,90.628 149.362,92.48 151.643,92.48ZM179.251,134.843L179.251,123.478L183.9,123.478L183.9,145.176C183.9,147.457 185.752,149.309 188.033,149.309C190.314,149.309 192.166,147.457 192.166,145.176L192.166,119.345C192.166,117.062 190.316,115.212 188.033,115.212L175.118,115.212C172.835,115.212 170.985,117.062 170.985,119.345L170.985,134.843C170.985,137.124 172.837,138.976 175.118,138.976C177.399,138.976 179.251,137.124 179.251,134.843ZM188.033,159.641L193.2,159.641C194.296,159.641 195.347,159.206 196.122,158.431L201.288,153.264C202.063,152.489 202.499,151.438 202.499,150.342L202.499,114.178C202.499,111.897 200.647,110.045 198.366,110.045C196.085,110.045 194.233,111.897 194.233,114.178L194.233,148.63L191.488,151.375L188.033,151.375C185.752,151.375 183.9,153.227 183.9,155.508C183.9,157.789 185.752,159.641 188.033,159.641ZM71.353,140.01L71.353,110.724L84.431,97.646L113.716,97.646L118.882,97.646C121.163,97.646 123.015,95.794 123.015,93.513C123.015,91.232 121.163,89.38 118.882,89.38L82.719,89.38C81.622,89.38 80.571,89.816 79.796,90.591L64.298,106.09C63.523,106.865 63.087,107.916 63.087,109.012L63.087,140.01C63.087,142.291 64.939,144.142 67.22,144.142C69.501,144.142 71.353,142.291 71.353,140.01ZM73.419,114.178L73.419,145.176C73.419,146.272 73.855,147.323 74.63,148.098L84.962,158.431C85.737,159.206 86.789,159.641 87.885,159.641L107.286,159.641C109.567,159.641 111.419,157.789 111.419,155.508C111.419,153.227 109.567,151.375 107.286,151.375L89.597,151.375L81.685,143.464L81.685,114.178C81.685,111.897 79.833,110.045 77.552,110.045C75.271,110.045 73.419,111.897 73.419,114.178ZM160.653,119.345L160.653,134.843C160.653,137.124 162.505,138.976 164.786,138.976C167.067,138.976 168.919,137.124 168.919,134.843L168.919,119.345C168.919,117.064 167.067,115.212 164.786,115.212C162.505,115.212 160.653,117.064 160.653,119.345ZM97.538,129.677L95.295,131.921C93.682,133.534 93.682,136.153 95.295,137.766C96.908,139.379 99.527,139.379 101.14,137.766L103.383,135.522L105.627,137.766C107.24,139.379 109.859,139.379 111.472,137.766C113.085,136.153 113.085,133.534 111.472,131.921L109.228,129.677L111.472,127.433C113.085,125.82 113.085,123.201 111.472,121.588C109.859,119.975 107.24,119.975 105.627,121.588L103.383,123.832L101.14,121.588C99.527,119.975 96.908,119.975 95.295,121.588C93.682,123.201 93.682,125.82 95.295,127.433L97.538,129.677ZM130.142,86.103L134.097,82.148L163.383,82.148C165.664,82.148 167.515,80.296 167.515,78.015C167.515,75.734 165.664,73.882 163.383,73.882L132.386,73.882C131.289,73.882 130.238,74.317 129.463,75.092L124.297,80.259C122.684,81.872 122.684,84.491 124.297,86.103C125.91,87.716 128.529,87.716 130.142,86.103ZM136.624,85.425L122.336,99.713L87.885,99.713C86.789,99.713 85.737,100.148 84.962,100.923L82.379,103.507C80.766,105.12 80.766,107.739 82.379,109.351C83.992,110.964 86.611,110.964 88.224,109.351L89.597,107.979L124.048,107.979C125.144,107.979 126.195,107.543 126.97,106.768L142.469,91.27C144.082,89.657 144.082,87.038 142.469,85.425C140.856,83.812 138.237,83.812 136.624,85.425ZM123.015,120.378L123.015,114.178C123.015,111.896 121.164,110.045 118.882,110.045L95.634,110.045C94.538,110.045 93.487,110.481 92.712,111.256L84.962,119.005C84.187,119.78 83.752,120.832 83.752,121.928L83.752,140.01C83.752,141.106 84.187,142.157 84.962,142.932L90.128,148.098C90.901,148.87 91.947,149.306 93.039,149.309L112.478,149.362L118.966,155.953L119.028,171.103C119.038,173.384 120.897,175.228 123.178,175.219C125.459,175.21 127.303,173.35 127.294,171.069L127.225,154.236C127.221,153.157 126.795,152.122 126.038,151.353L117.159,142.335C116.385,141.548 115.328,141.104 114.225,141.101L94.768,141.048L92.018,138.298L92.018,123.64L97.346,118.311L114.749,118.311L114.749,124.511L114.749,134.843C114.749,137.124 116.601,138.976 118.882,138.976C121.163,138.976 123.015,137.124 123.015,134.843L123.015,128.644L127.664,128.644L127.664,142.593C127.664,144.874 129.516,146.726 131.797,146.726C134.078,146.726 135.93,144.874 135.93,142.593L135.93,111.595C135.93,109.314 134.078,107.462 131.797,107.462C129.516,107.462 127.664,109.314 127.664,111.595L127.664,120.378L123.015,120.378Z"/>
        </g>
    </g>
</svg>
